<svg width="152" height="172" viewBox="0 0 152 172" fill="none" xmlns="http://www.w3.org/2000/svg">
<path d="M95.7331 0H56.2666V44.3789H95.7331V0Z" fill="black"/>
<path d="M95.7331 127.378H56.2666V171.757H95.7331V127.378Z" fill="black"/>
<path d="M76.6016 105.545C86.1674 105.545 92.2897 101.01 92.2897 93.8542C92.2897 88.6649 89.5573 85.6589 82.943 83.4196L73.5963 80.2505C70.4815 79.2135 69.3321 78.1743 69.3321 76.4266C69.3321 74.0218 71.6286 72.5468 75.3985 72.5468C79.4436 72.5468 81.9032 74.0777 82.7775 77.2445H91.905C90.6484 69.9789 85.074 66.2086 75.6177 66.2086C66.1614 66.2086 60.5869 70.5242 60.5869 77.2445C60.5869 82.3244 63.3753 85.3839 70.2624 87.7328L79.1708 90.7364C82.3951 91.8829 83.5445 92.8662 83.5445 94.8329C83.5445 97.5104 80.9753 99.2044 76.8766 99.2044C72.778 99.2044 70.0432 97.2913 69.2785 94.0686H59.7126C60.6429 101.115 67.1453 105.54 76.6016 105.54" fill="black"/>
<path d="M152 66.1541H107.6V105.6H152V66.1541Z" fill="black"/>
<path d="M44.4021 66.1541H0V105.6H44.4021V66.1541Z" fill="black"/>
</svg>
